<mxfile host="app.diagrams.net" agent="Mozilla/5.0 (Windows NT 10.0; Win64; x64) AppleWebKit/537.36 (KHTML, like Gecko) Chrome/133.0.0.0 Safari/537.36" version="26.1.0">
  <diagram name="Страница — 1" id="l587eMgFrYvgaw0hlpzk">
    <mxGraphModel dx="538" dy="1437" grid="1" gridSize="10" guides="1" tooltips="1" connect="1" arrows="1" fold="1" page="1" pageScale="1" pageWidth="827" pageHeight="1169" math="0" shadow="0">
      <root>
        <mxCell id="0" />
        <mxCell id="1" parent="0" />
        <mxCell id="2h79rnAecYv1Fj-Xa9L4-1" value="Frontend" style="whiteSpace=wrap;html=1;aspect=fixed;" vertex="1" parent="1">
          <mxGeometry x="200" y="120" width="80" height="80" as="geometry" />
        </mxCell>
        <mxCell id="2h79rnAecYv1Fj-Xa9L4-2" value="Backend" style="whiteSpace=wrap;html=1;aspect=fixed;" vertex="1" parent="1">
          <mxGeometry x="520" y="120" width="80" height="80" as="geometry" />
        </mxCell>
        <mxCell id="2h79rnAecYv1Fj-Xa9L4-6" value="" style="endArrow=classic;html=1;rounded=0;entryX=0.25;entryY=0;entryDx=0;entryDy=0;" edge="1" parent="1" target="2h79rnAecYv1Fj-Xa9L4-1">
          <mxGeometry width="50" height="50" relative="1" as="geometry">
            <mxPoint x="220" y="80" as="sourcePoint" />
            <mxPoint x="440" y="220" as="targetPoint" />
          </mxGeometry>
        </mxCell>
        <mxCell id="2h79rnAecYv1Fj-Xa9L4-28" value="&lt;span style=&quot;font-size: 12px; background-color: rgb(251, 251, 251);&quot;&gt;Пользователь&lt;/span&gt;&lt;div&gt;&lt;span style=&quot;font-size: 12px; background-color: rgb(251, 251, 251);&quot;&gt;авторизуется&amp;nbsp;&lt;/span&gt;&lt;/div&gt;&lt;div&gt;&lt;span style=&quot;font-size: 12px; background-color: rgb(251, 251, 251);&quot;&gt;через ВК&lt;/span&gt;&lt;/div&gt;" style="edgeLabel;html=1;align=center;verticalAlign=middle;resizable=0;points=[];" vertex="1" connectable="0" parent="2h79rnAecYv1Fj-Xa9L4-6">
          <mxGeometry x="-0.5833" relative="1" as="geometry">
            <mxPoint x="-60" y="12" as="offset" />
          </mxGeometry>
        </mxCell>
        <mxCell id="2h79rnAecYv1Fj-Xa9L4-7" value="" style="shape=umlActor;verticalLabelPosition=top;verticalAlign=bottom;html=1;outlineConnect=0;labelPosition=center;align=center;" vertex="1" parent="1">
          <mxGeometry x="225" y="10" width="30" height="60" as="geometry" />
        </mxCell>
        <mxCell id="2h79rnAecYv1Fj-Xa9L4-8" value="" style="endArrow=classic;html=1;rounded=0;exitX=1.036;exitY=0.16;exitDx=0;exitDy=0;exitPerimeter=0;entryX=0;entryY=0.16;entryDx=0;entryDy=0;entryPerimeter=0;" edge="1" parent="1" source="2h79rnAecYv1Fj-Xa9L4-1" target="2h79rnAecYv1Fj-Xa9L4-2">
          <mxGeometry width="50" height="50" relative="1" as="geometry">
            <mxPoint x="360" y="110" as="sourcePoint" />
            <mxPoint x="410" y="60" as="targetPoint" />
          </mxGeometry>
        </mxCell>
        <mxCell id="2h79rnAecYv1Fj-Xa9L4-10" value="После авторизации токен&lt;div&gt;отправляется на сервер&lt;/div&gt;" style="edgeLabel;html=1;align=center;verticalAlign=middle;resizable=0;points=[];" vertex="1" connectable="0" parent="2h79rnAecYv1Fj-Xa9L4-8">
          <mxGeometry x="0.0178" y="2" relative="1" as="geometry">
            <mxPoint x="37" y="-21" as="offset" />
          </mxGeometry>
        </mxCell>
        <mxCell id="2h79rnAecYv1Fj-Xa9L4-11" value="" style="endArrow=classic;html=1;rounded=0;exitX=0.364;exitY=0.013;exitDx=0;exitDy=0;exitPerimeter=0;" edge="1" parent="1">
          <mxGeometry width="50" height="50" relative="1" as="geometry">
            <mxPoint x="549.1199999999999" y="119.99999999999996" as="sourcePoint" />
            <mxPoint x="549" y="78.96" as="targetPoint" />
          </mxGeometry>
        </mxCell>
        <mxCell id="2h79rnAecYv1Fj-Xa9L4-22" value="Запрос&lt;div&gt;дополнительной&amp;nbsp;&lt;/div&gt;&lt;div&gt;информации к VK API&lt;/div&gt;" style="edgeLabel;html=1;align=center;verticalAlign=middle;resizable=0;points=[];" vertex="1" connectable="0" parent="2h79rnAecYv1Fj-Xa9L4-11">
          <mxGeometry x="-0.1088" relative="1" as="geometry">
            <mxPoint x="91" y="-22" as="offset" />
          </mxGeometry>
        </mxCell>
        <mxCell id="2h79rnAecYv1Fj-Xa9L4-12" value="VKAPI" style="shape=cylinder3;whiteSpace=wrap;html=1;boundedLbl=1;backgroundOutline=1;size=15;labelPosition=center;verticalLabelPosition=top;align=center;verticalAlign=bottom;spacing=10;" vertex="1" parent="1">
          <mxGeometry x="540" y="20" width="40" height="50" as="geometry" />
        </mxCell>
        <mxCell id="2h79rnAecYv1Fj-Xa9L4-14" value="LLM" style="ellipse;shape=cloud;whiteSpace=wrap;html=1;" vertex="1" parent="1">
          <mxGeometry x="640" y="120" width="120" height="80" as="geometry" />
        </mxCell>
        <mxCell id="2h79rnAecYv1Fj-Xa9L4-15" value="" style="endArrow=classic;html=1;rounded=0;exitX=1.032;exitY=0.383;exitDx=0;exitDy=0;exitPerimeter=0;" edge="1" parent="1" source="2h79rnAecYv1Fj-Xa9L4-2" target="2h79rnAecYv1Fj-Xa9L4-14">
          <mxGeometry width="50" height="50" relative="1" as="geometry">
            <mxPoint x="360" y="160" as="sourcePoint" />
            <mxPoint x="410" y="110" as="targetPoint" />
          </mxGeometry>
        </mxCell>
        <mxCell id="2h79rnAecYv1Fj-Xa9L4-18" value="" style="endArrow=classic;html=1;rounded=0;exitX=1.036;exitY=0.608;exitDx=0;exitDy=0;exitPerimeter=0;entryX=0;entryY=0.625;entryDx=0;entryDy=0;entryPerimeter=0;" edge="1" parent="1" source="2h79rnAecYv1Fj-Xa9L4-1" target="2h79rnAecYv1Fj-Xa9L4-2">
          <mxGeometry width="50" height="50" relative="1" as="geometry">
            <mxPoint x="380" y="160" as="sourcePoint" />
            <mxPoint x="430" y="110" as="targetPoint" />
          </mxGeometry>
        </mxCell>
        <mxCell id="2h79rnAecYv1Fj-Xa9L4-20" value="Запрос асситенту" style="edgeLabel;html=1;align=center;verticalAlign=middle;resizable=0;points=[];" vertex="1" connectable="0" parent="2h79rnAecYv1Fj-Xa9L4-18">
          <mxGeometry x="-0.3069" relative="1" as="geometry">
            <mxPoint x="35" y="-9" as="offset" />
          </mxGeometry>
        </mxCell>
        <mxCell id="2h79rnAecYv1Fj-Xa9L4-19" value="" style="endArrow=classic;html=1;rounded=0;exitX=0.002;exitY=0.891;exitDx=0;exitDy=0;exitPerimeter=0;entryX=1.043;entryY=0.884;entryDx=0;entryDy=0;entryPerimeter=0;" edge="1" parent="1" source="2h79rnAecYv1Fj-Xa9L4-2" target="2h79rnAecYv1Fj-Xa9L4-1">
          <mxGeometry width="50" height="50" relative="1" as="geometry">
            <mxPoint x="380" y="160" as="sourcePoint" />
            <mxPoint x="430" y="110" as="targetPoint" />
          </mxGeometry>
        </mxCell>
        <mxCell id="2h79rnAecYv1Fj-Xa9L4-21" value="Ответ ассистента" style="edgeLabel;html=1;align=center;verticalAlign=middle;resizable=0;points=[];" vertex="1" connectable="0" parent="1">
          <mxGeometry x="399.9974738643054" y="200.0006400322851" as="geometry" />
        </mxCell>
        <mxCell id="2h79rnAecYv1Fj-Xa9L4-23" value="" style="endArrow=classic;html=1;rounded=0;entryX=0.625;entryY=0;entryDx=0;entryDy=0;entryPerimeter=0;" edge="1" parent="1" target="2h79rnAecYv1Fj-Xa9L4-2">
          <mxGeometry width="50" height="50" relative="1" as="geometry">
            <mxPoint x="570" y="80" as="sourcePoint" />
            <mxPoint x="640" y="70" as="targetPoint" />
          </mxGeometry>
        </mxCell>
        <mxCell id="2h79rnAecYv1Fj-Xa9L4-24" value="" style="endArrow=classic;html=1;rounded=0;entryX=1.032;entryY=0.633;entryDx=0;entryDy=0;entryPerimeter=0;" edge="1" parent="1" source="2h79rnAecYv1Fj-Xa9L4-14" target="2h79rnAecYv1Fj-Xa9L4-2">
          <mxGeometry width="50" height="50" relative="1" as="geometry">
            <mxPoint x="640" y="180" as="sourcePoint" />
            <mxPoint x="690" y="130" as="targetPoint" />
          </mxGeometry>
        </mxCell>
        <mxCell id="2h79rnAecYv1Fj-Xa9L4-25" value="Обработка&lt;div&gt;информации&lt;/div&gt;&lt;div&gt;через LLM&lt;/div&gt;" style="edgeLabel;html=1;align=center;verticalAlign=middle;resizable=0;points=[];" vertex="1" connectable="0" parent="2h79rnAecYv1Fj-Xa9L4-24">
          <mxGeometry x="-0.2054" relative="1" as="geometry">
            <mxPoint x="14" y="42" as="offset" />
          </mxGeometry>
        </mxCell>
        <mxCell id="2h79rnAecYv1Fj-Xa9L4-27" value="" style="endArrow=classic;html=1;rounded=0;entryX=0.75;entryY=0;entryDx=0;entryDy=0;" edge="1" parent="1" target="2h79rnAecYv1Fj-Xa9L4-1">
          <mxGeometry width="50" height="50" relative="1" as="geometry">
            <mxPoint x="260" y="80" as="sourcePoint" />
            <mxPoint x="350" y="90" as="targetPoint" />
          </mxGeometry>
        </mxCell>
        <mxCell id="2h79rnAecYv1Fj-Xa9L4-29" value="Вопрос&lt;div&gt;пользователя&lt;/div&gt;" style="edgeLabel;html=1;align=center;verticalAlign=middle;resizable=0;points=[];" vertex="1" connectable="0" parent="2h79rnAecYv1Fj-Xa9L4-27">
          <mxGeometry x="-0.1731" y="-1" relative="1" as="geometry">
            <mxPoint x="51" as="offset" />
          </mxGeometry>
        </mxCell>
      </root>
    </mxGraphModel>
  </diagram>
</mxfile>
